<svg xmlns="http://www.w3.org/2000/svg" xmlns:xlink="http://www.w3.org/1999/xlink" width="106.624" height="114.259" viewBox="0 0 106.624 114.259"><defs><style>.a{fill:none;}.b{clip-path:url(#a);}.c{fill:#202020;}</style><clipPath id="a"><rect class="a" width="106.624" height="114.259"/></clipPath></defs><g class="b"><g transform="translate(9.542)"><path class="c" d="M8.632,38.042A1.884,1.884,0,0,0,11,36.726,45.969,45.969,0,0,1,54.836,3.817,46.713,46.713,0,0,1,64.445,4.87a9.133,9.133,0,0,0,1.843,5.792l.527.79c0,6.845-1.448,7.9-1.316,7.9-3.028,0-8.161,2.764-10,6.318a5.969,5.969,0,0,0,.132,6.582,46.621,46.621,0,0,1,2.5,4.344c1.58,3.159,3.422,6.582,6.187,6.582a4.042,4.042,0,0,0,1.975-.527c2.238-1.053,3.817-4.212,5.4-7.372a32.386,32.386,0,0,1,2.238-3.949c1.975.263,2.9,1.975,4.212,4.739.921,1.975,1.975,4.081,3.817,5.134,3.159,1.58,13.822-.132,19.614-2.5a1.816,1.816,0,0,0,1.053-2.238A49.767,49.767,0,0,0,73.528,3.554a2,2,0,0,0-2.5,1.053,2,2,0,0,0,1.053,2.5A46.268,46.268,0,0,1,98.407,35.8c-5.924,2.106-13.558,2.764-14.875,2.106-.658-.395-1.448-1.975-2.106-3.291-1.316-2.9-3.159-6.845-7.766-6.977-2.369-.132-3.686,2.633-5.529,6.055-1.053,1.975-2.5,5.134-3.817,5.66-.658-.132-2.106-2.9-2.9-4.476-.79-1.448-1.711-3.159-2.633-4.739a2.648,2.648,0,0,1-.132-2.633c1.316-2.5,5.265-4.344,6.713-4.344,3.422,0,5.134-3.949,5.134-11.715a5.964,5.964,0,0,0-1.053-2.9,6.327,6.327,0,0,1-1.185-4.87,1.831,1.831,0,0,0-1.448-2.238A46.923,46.923,0,0,0,54.7,0,49.6,49.6,0,0,0,7.316,35.673,2,2,0,0,0,8.632,38.042Z" transform="translate(-7.249 0)"/></g><g transform="translate(63.771 49.566)"><path class="c" d="M64.577,38.636c-.527.132-1.316.395-1.448.395-2.633,0-4.344,1.975-5.529,3.554-.527.527-1.316,1.58-1.843,1.58a6.475,6.475,0,0,0-2.633-.658c-2.238,0-4.212,1.316-4.607,3.159-.263,1.316.132,3.028,2.369,4.212,3.028,1.58,6.318,3.159,7.766,4.607a6.675,6.675,0,0,0,4.607,1.58c3.028,0,6.977-1.448,8.293-5.529a11.408,11.408,0,0,1,3.028-4.081c1.448-1.448,2.764-2.764,2.9-4.607a4.664,4.664,0,0,0-1.448-3.159,7.362,7.362,0,0,0-5.4-1.975A14.319,14.319,0,0,0,64.577,38.636Zm9.083,3.949a7.043,7.043,0,0,1-1.711,1.843,12.629,12.629,0,0,0-4.081,5.66c-.921,2.764-4.081,2.9-4.739,2.9a3.968,3.968,0,0,1-1.975-.395c-1.843-1.843-5.134-3.554-8.688-5.265h0a2.248,2.248,0,0,1,1.58.132,4.881,4.881,0,0,0,1.843.527c2.106,0,3.422-1.58,4.607-3.028.921-1.053,1.711-2.106,2.633-2.106a12.181,12.181,0,0,0,2.5-.527A19.932,19.932,0,0,1,70.5,41.4a3.708,3.708,0,0,1,2.764.921A1.629,1.629,0,0,1,73.659,42.585Z" transform="translate(-48.446 -37.654)"/></g><g transform="translate(7.635 36.033)"><path class="c" d="M104.262,33.99a1.891,1.891,0,0,0-2.106-1.58,1.821,1.821,0,0,0-1.58,2.106,50.9,50.9,0,0,1,.395,6.318A45.676,45.676,0,0,1,55.821,86.512C49.108,82.168,42.658,76.9,45.554,70.321c5.134-11.847.395-16.323-1.711-18.166l-.395-.395A9.344,9.344,0,0,0,41.6,50.444c-1.448-.79-1.711-1.053-1.053-3.291a7.565,7.565,0,0,1,1.975-3.028c1.711-1.843,3.159-3.686,3.159-9.083A7.093,7.093,0,0,0,41.341,28.2c-3.159-1.448-7.372-.921-9.609,1.053a4.39,4.39,0,0,0-1.316,4.739c1.316,4.081-1.711,10-7.5,14.348-1.58,1.185-1.975.658-2.238.263-1.711-1.975-1.58-7.5-.132-8.951a2.942,2.942,0,0,0,.79-3.159c-1.58-3.554-11.321-3.291-13.3-3.159a1.966,1.966,0,0,0-1.843,1.711A41.4,41.4,0,0,0,5.8,40.835,49.289,49.289,0,0,0,43.447,88.882a1.964,1.964,0,0,0,.921-3.817A45.233,45.233,0,0,1,9.617,40.835a33.281,33.281,0,0,1,.132-3.686,31.081,31.081,0,0,1,7.372.79c-2.238,3.422-1.975,10.136.79,13.163,1.975,2.238,4.739,2.238,7.372.263C32.653,45.837,36.076,38.6,34.1,32.805a.553.553,0,0,1,.263-.658,5.468,5.468,0,0,1,5.4-.395,3.349,3.349,0,0,1,2.106,3.422c0,4.344-.921,5.265-2.106,6.45A10.719,10.719,0,0,0,37,45.969c-1.711,5.134,1.053,6.845,2.633,7.766a7.3,7.3,0,0,1,1.053.79,1.817,1.817,0,0,0,.527.395c1.711,1.58,4.739,4.476.79,13.822C37.392,79.4,49.239,86.775,54.241,89.935a2.48,2.48,0,0,0,1.053.263,49.409,49.409,0,0,0,49.494-49.363A39.973,39.973,0,0,0,104.262,33.99Z" transform="translate(-5.8 -27.374)"/></g><g transform="translate(0 47.652)"><path class="c" d="M88.985,80.824A53.345,53.345,0,0,1,3.817,38.043,1.8,1.8,0,0,0,1.975,36.2,1.913,1.913,0,0,0,0,38.043,57.3,57.3,0,0,0,55.155,95.172v5.792a1.843,1.843,0,1,0,3.686,0V95.172a57.179,57.179,0,0,0,32.25-11.189,1.9,1.9,0,0,0,.395-2.633A1.661,1.661,0,0,0,88.985,80.824Z" transform="translate(0 -36.2)"/></g><g transform="translate(51.939 77.138)"><path class="c" d="M46.1,58.6c-2.369,0-5.134,2.764-6.187,5.134-.79,1.975-.527,3.686.658,4.87a6.353,6.353,0,0,0,4.607,1.843A6.141,6.141,0,0,0,49.781,68.6c1.316-1.316,1.58-3.159.921-5.265a13.128,13.128,0,0,0-2.5-4.081A3.642,3.642,0,0,0,46.1,58.6Zm1.053,7.372a3.371,3.371,0,0,1-3.817,0,2.872,2.872,0,0,1,.527-1.448,6.275,6.275,0,0,1,2.106-2.106,5.7,5.7,0,0,1,1.185,2.106C47.28,65.313,47.28,65.84,47.148,65.972Z" transform="translate(-39.457 -58.6)"/></g></g></svg>